<svg width="816" height="178" viewBox="0 0 816 178" fill="none" xmlns="http://www.w3.org/2000/svg">
<g clip-path="url(#clip0_160_436)">
<path d="M27.0698 30.7786C31.3011 14.9873 33.4167 7.09172 39.6369 3.50049C45.8571 -0.0907352 53.7527 2.02489 69.5439 6.25614L81.259 9.39519C87.7828 11.1432 91.0447 12.0172 93.4331 13.6179C97.8972 16.6097 100.722 21.5022 101.081 26.8641C101.273 29.7329 100.399 32.9948 98.6507 39.5185V39.5185C95.324 51.934 93.6607 58.1418 90.6144 62.6872C84.9207 71.1829 75.6097 76.5586 65.4054 77.2416C59.9457 77.6071 53.738 75.9437 41.3225 72.617V72.617C34.7987 70.869 31.5369 69.995 29.1484 68.3943C24.6843 65.4025 21.8597 60.51 21.5007 55.1481C21.3087 52.2793 22.1827 49.0174 23.9308 42.4937L27.0698 30.7786Z" fill="url(#paint0_linear_160_436)"/>
<path d="M105.425 41.3276C107.166 34.8286 108.037 31.5791 109.63 29.1985C112.62 24.7284 117.517 21.901 122.883 21.5465C125.741 21.3576 128.991 22.2283 135.49 23.9697L147.209 27.11C162.982 31.3363 170.868 33.4494 174.455 39.6623C178.042 45.8752 175.929 53.7615 171.703 69.5342L168.563 81.2538C166.821 87.7528 165.951 91.0023 164.358 93.383C161.368 97.853 156.471 100.68 151.104 101.035C148.246 101.224 144.997 100.353 138.498 98.6117V98.6117C126.115 95.2937 119.924 93.6347 115.388 90.6004C106.87 84.9029 101.483 75.5722 100.808 65.3474C100.448 59.902 102.107 53.7105 105.425 41.3276V41.3276Z" fill="white"/>
<path d="M105.425 41.3276C107.166 34.8286 108.037 31.5791 109.63 29.1985C112.62 24.7284 117.517 21.901 122.883 21.5465C125.741 21.3576 128.991 22.2283 135.49 23.9697L147.209 27.11C162.982 31.3363 170.868 33.4494 174.455 39.6623C178.042 45.8752 175.929 53.7615 171.703 69.5342L168.563 81.2538C166.821 87.7528 165.951 91.0023 164.358 93.383C161.368 97.853 156.471 100.68 151.104 101.035C148.246 101.224 144.997 100.353 138.498 98.6117V98.6117C126.115 95.2937 119.924 93.6347 115.388 90.6004C106.87 84.9029 101.483 75.5722 100.808 65.3474C100.448 59.902 102.107 53.7105 105.425 41.3276V41.3276Z" fill="url(#paint1_linear_160_436)"/>
<path d="M9.43733 96.7462C11.1787 90.2472 12.0494 86.9977 13.642 84.6171C16.6322 80.147 21.5293 77.3196 26.8957 76.965C29.7536 76.7762 33.0031 77.6469 39.5021 79.3883V79.3883C51.885 82.7063 58.0765 84.3653 62.6125 87.3996C71.1296 93.0971 76.5167 102.428 77.1923 112.653C77.5521 118.098 75.8931 124.289 72.5751 136.672V136.672C70.8337 143.171 69.963 146.421 68.3705 148.802C65.3802 153.272 60.4831 156.099 55.1168 156.454C52.2588 156.642 49.0093 155.772 42.5103 154.03L30.7907 150.89C15.018 146.664 7.13167 144.551 3.54466 138.338C-0.0423491 132.125 2.07079 124.239 6.29707 108.466L9.43733 96.7462Z" fill="white"/>
<path d="M9.43733 96.7462C11.1787 90.2472 12.0494 86.9977 13.642 84.6171C16.6322 80.147 21.5293 77.3196 26.8957 76.965C29.7536 76.7762 33.0031 77.6469 39.5021 79.3883V79.3883C51.885 82.7063 58.0765 84.3653 62.6125 87.3996C71.1296 93.0971 76.5167 102.428 77.1923 112.653C77.5521 118.098 75.8931 124.289 72.5751 136.672V136.672C70.8337 143.171 69.963 146.421 68.3705 148.802C65.3802 153.272 60.4831 156.099 55.1168 156.454C52.2588 156.642 49.0093 155.772 42.5103 154.03L30.7907 150.89C15.018 146.664 7.13167 144.551 3.54466 138.338C-0.0423491 132.125 2.07079 124.239 6.29707 108.466L9.43733 96.7462Z" fill="url(#paint2_linear_160_436)"/>
<path d="M79.3883 138.498C82.7063 126.115 84.3653 119.924 87.3996 115.388C93.0971 106.871 102.428 101.483 112.653 100.808C118.098 100.448 124.29 102.107 136.672 105.425V105.425C143.171 107.166 146.421 108.037 148.802 109.63C153.272 112.62 156.099 117.517 156.454 122.883C156.642 125.741 155.772 128.991 154.03 135.49L150.89 147.209C146.664 162.982 144.551 170.868 138.338 174.456C132.125 178.043 124.239 175.929 108.466 171.703L96.7463 168.563C90.2473 166.821 86.9978 165.951 84.6171 164.358C80.147 161.368 77.3197 156.471 76.9651 151.104C76.7762 148.247 77.6469 144.997 79.3883 138.498V138.498Z" fill="white"/>
<path d="M79.3883 138.498C82.7063 126.115 84.3653 119.924 87.3996 115.388C93.0971 106.871 102.428 101.483 112.653 100.808C118.098 100.448 124.29 102.107 136.672 105.425V105.425C143.171 107.166 146.421 108.037 148.802 109.63C153.272 112.62 156.099 117.517 156.454 122.883C156.642 125.741 155.772 128.991 154.03 135.49L150.89 147.209C146.664 162.982 144.551 170.868 138.338 174.456C132.125 178.043 124.239 175.929 108.466 171.703L96.7463 168.563C90.2473 166.821 86.9978 165.951 84.6171 164.358C80.147 161.368 77.3197 156.471 76.9651 151.104C76.7762 148.247 77.6469 144.997 79.3883 138.498V138.498Z" fill="url(#paint3_linear_160_436)"/>
<path d="M216.799 136V57.3421H252.082C261.147 57.3421 268.114 59.1774 272.983 62.8481C277.852 66.4439 280.287 71.3881 280.287 77.6808C280.287 81.9508 279.313 85.5466 277.365 88.4681C275.492 91.3897 272.945 93.6371 269.724 95.2102C266.503 96.7834 263.02 97.57 259.274 97.57L261.297 94.1989C265.791 94.1989 269.762 94.9855 273.208 96.5587C276.654 98.1318 279.388 100.454 281.411 103.526C283.433 106.522 284.445 110.268 284.445 114.762C284.445 121.504 281.897 126.748 276.803 130.494C271.784 134.165 264.293 136 254.33 136H216.799ZM228.036 126.898H253.88C260.098 126.898 264.855 125.849 268.151 123.752C271.447 121.654 273.095 118.358 273.095 113.863C273.095 109.294 271.447 105.96 268.151 103.863C264.855 101.765 260.098 100.716 253.88 100.716H227.024V91.6145H251.071C256.764 91.6145 261.184 90.5657 264.331 88.4681C267.477 86.3706 269.05 83.2243 269.05 79.0292C269.05 74.8341 267.477 71.6878 264.331 69.5902C261.184 67.4927 256.764 66.4439 251.071 66.4439H228.036V126.898ZM298.023 136V52.6226H308.81V136H298.023ZM352.667 136.674C346.674 136.674 341.355 135.363 336.711 132.741C332.066 130.119 328.396 126.524 325.699 121.954C323.002 117.309 321.653 112.066 321.653 106.222C321.653 100.304 323.002 95.0604 325.699 90.4908C328.396 85.9211 332.066 82.3628 336.711 79.8158C341.355 77.1938 346.674 75.8829 352.667 75.8829C358.585 75.8829 363.866 77.1938 368.511 79.8158C373.231 82.3628 376.901 85.9211 379.523 90.4908C382.22 94.9855 383.568 100.229 383.568 106.222C383.568 112.14 382.22 117.384 379.523 121.954C376.901 126.524 373.231 130.119 368.511 132.741C363.866 135.363 358.585 136.674 352.667 136.674ZM352.667 127.235C356.488 127.235 359.896 126.374 362.893 124.651C365.964 122.928 368.361 120.493 370.084 117.347C371.807 114.126 372.669 110.417 372.669 106.222C372.669 101.952 371.807 98.2816 370.084 95.2102C368.361 92.0639 365.964 89.6293 362.893 87.9063C359.896 86.1833 356.488 85.3218 352.667 85.3218C348.847 85.3218 345.438 86.1833 342.442 87.9063C339.445 89.6293 337.048 92.0639 335.25 95.2102C333.452 98.2816 332.553 101.952 332.553 106.222C332.553 110.417 333.452 114.126 335.25 117.347C337.048 120.493 339.445 122.928 342.442 124.651C345.438 126.374 348.847 127.235 352.667 127.235ZM385.612 136L411.232 102.739L411.12 108.245L386.736 76.4447H398.759L417.412 100.941H412.805L431.458 76.4447H443.257L418.536 108.47L418.648 102.739L444.493 136H432.245L412.581 109.931L416.963 110.605L397.636 136H385.612ZM454.017 136V52.6226H464.805V136H454.017ZM520.123 136V123.415L519.562 121.055V99.5926C519.562 95.023 518.213 91.5021 515.516 89.03C512.894 86.483 508.924 85.2094 503.605 85.2094C500.084 85.2094 496.638 85.8087 493.267 87.0073C489.896 88.131 487.05 89.6667 484.727 91.6145L480.233 83.5239C483.304 81.0518 486.975 79.179 491.245 77.9055C495.59 76.5571 500.122 75.8829 504.841 75.8829C513.007 75.8829 519.299 77.868 523.719 81.8384C528.139 85.8087 530.349 91.8766 530.349 100.042V136H520.123ZM500.571 136.674C496.151 136.674 492.256 135.925 488.885 134.427C485.589 132.929 483.042 130.869 481.244 128.247C479.446 125.55 478.547 122.516 478.547 119.145C478.547 115.923 479.296 113.002 480.794 110.38C482.368 107.758 484.877 105.661 488.323 104.087C491.844 102.514 496.563 101.728 502.481 101.728H521.359V109.481H502.931C497.537 109.481 493.904 110.38 492.031 112.178C490.158 113.976 489.222 116.148 489.222 118.695C489.222 121.617 490.383 123.977 492.705 125.774C495.028 127.497 498.249 128.359 502.369 128.359C506.414 128.359 509.935 127.46 512.932 125.662C516.003 123.864 518.213 121.242 519.562 117.796L521.697 125.213C520.273 128.734 517.764 131.543 514.168 133.64C510.572 135.663 506.04 136.674 500.571 136.674ZM573.123 136.674C568.029 136.674 563.534 135.738 559.638 133.865C555.818 131.992 552.821 129.146 550.649 125.325C548.551 121.43 547.503 116.56 547.503 110.717V76.4447H558.29V109.481C558.29 115.324 559.676 119.707 562.448 122.628C565.294 125.55 569.265 127.011 574.359 127.011C578.104 127.011 581.363 126.261 584.135 124.763C586.906 123.19 589.042 120.943 590.54 118.021C592.038 115.025 592.787 111.429 592.787 107.234V76.4447H603.574V136H593.349V119.931L595.034 124.201C593.087 128.172 590.165 131.243 586.27 133.416C582.374 135.588 577.992 136.674 573.123 136.674ZM653.664 75.8829C658.533 75.8829 662.803 76.8193 666.474 78.6921C670.219 80.5649 673.141 83.4116 675.238 87.2321C677.336 91.0526 678.385 95.8845 678.385 101.728V136H667.597V102.964C667.597 97.1954 666.174 92.8505 663.327 89.9289C660.556 87.0073 656.623 85.5466 651.529 85.5466C647.708 85.5466 644.375 86.2957 641.528 87.7939C638.681 89.2922 636.471 91.5021 634.898 94.4237C633.4 97.3452 632.651 100.978 632.651 105.323V136H621.863V76.4447H632.201V92.5134L630.516 88.2434C632.463 84.348 635.46 81.314 639.505 79.1415C643.55 76.9691 648.27 75.8829 653.664 75.8829ZM722.058 136.674C715.99 136.674 710.559 135.363 705.765 132.741C701.045 130.119 697.337 126.524 694.64 121.954C691.944 117.384 690.595 112.14 690.595 106.222C690.595 100.304 691.944 95.0604 694.64 90.4908C697.337 85.9211 701.045 82.3628 705.765 79.8158C710.559 77.1938 715.99 75.8829 722.058 75.8829C727.452 75.8829 732.246 76.9691 736.441 79.1415C740.711 81.2391 744.008 84.3854 746.33 88.5805L738.127 93.8618C736.179 90.9402 733.782 88.8052 730.935 87.4568C728.164 86.0335 725.167 85.3218 721.946 85.3218C718.05 85.3218 714.567 86.1833 711.496 87.9063C708.424 89.6293 705.99 92.0639 704.192 95.2102C702.394 98.2816 701.495 101.952 701.495 106.222C701.495 110.492 702.394 114.201 704.192 117.347C705.99 120.493 708.424 122.928 711.496 124.651C714.567 126.374 718.05 127.235 721.946 127.235C725.167 127.235 728.164 126.561 730.935 125.213C733.782 123.789 736.179 121.617 738.127 118.695L746.33 123.864C744.008 127.984 740.711 131.168 736.441 133.416C732.246 135.588 727.452 136.674 722.058 136.674ZM789.081 75.8829C793.95 75.8829 798.22 76.8193 801.891 78.6921C805.636 80.5649 808.558 83.4116 810.656 87.2321C812.753 91.0526 813.802 95.8845 813.802 101.728V136H803.014V102.964C803.014 97.1954 801.591 92.8505 798.744 89.9289C795.973 87.0073 792.04 85.5466 786.946 85.5466C783.125 85.5466 779.792 86.2957 776.945 87.7939C774.098 89.2922 771.888 91.5021 770.315 94.4237C768.817 97.3452 768.068 100.978 768.068 105.323V136H757.281V52.6226H768.068V92.5134L765.933 88.2434C767.881 84.348 770.877 81.314 774.922 79.1415C778.968 76.9691 783.687 75.8829 789.081 75.8829Z" fill="white"/>
</g>
<defs>
<linearGradient id="paint0_linear_160_436" x1="159.5" y1="205.5" x2="24" y2="-26" gradientUnits="userSpaceOnUse">
<stop stop-color="#FFA600"/>
<stop offset="1" stop-color="#FFEA00"/>
</linearGradient>
<linearGradient id="paint1_linear_160_436" x1="23.5" y1="-22" x2="153.5" y2="195.5" gradientUnits="userSpaceOnUse">
<stop stop-color="#FFEA00"/>
<stop offset="1" stop-color="#FFA600"/>
</linearGradient>
<linearGradient id="paint2_linear_160_436" x1="20.5" y1="-28" x2="153.5" y2="199" gradientUnits="userSpaceOnUse">
<stop stop-color="#FFEA00"/>
<stop offset="1" stop-color="#FFA600"/>
</linearGradient>
<linearGradient id="paint3_linear_160_436" x1="26" y1="-26" x2="152.5" y2="204" gradientUnits="userSpaceOnUse">
<stop stop-color="#FFEA00"/>
<stop offset="1" stop-color="#FFA600"/>
</linearGradient>
<clipPath id="clip0_160_436">
<rect width="816" height="178" fill="white"/>
</clipPath>
</defs>
</svg>
