<svg width="14" height="16" viewBox="0 0 14 16" fill="none" xmlns="http://www.w3.org/2000/svg">
<path fill-rule="evenodd" clip-rule="evenodd" d="M13.58 13.9204C13.58 11.9204 11.87 10.0804 10.42 8.92042C9.90136 8.49016 9.31285 8.15194 8.68 7.92042C9.97215 7.53586 10.8585 6.34858 10.86 5.00042V3.00042C10.8601 2.19603 10.5372 1.42529 9.96372 0.861222C9.39025 0.297153 8.61428 -0.0129892 7.81 0.000417252H5.73C4.07284 0.0275532 2.74065 1.37307 2.73 3.03042V5.03042C2.71704 6.38979 3.61978 7.58796 4.93 7.95042C4.31344 8.18375 3.73664 8.51094 3.22 8.92042C1.73 10.0504 0.01 11.9204 0 13.9204V14.0604C0 14.5404 3.41 15.8704 6.79 15.8704C10.17 15.8704 13.58 14.5404 13.58 14.0604V13.9204ZM6.58 14.3404C6.38679 14.472 6.1372 14.4878 5.92895 14.3816C5.7207 14.2754 5.58693 14.0641 5.58 13.8304V10.2004C5.58693 9.96675 5.7207 9.75545 5.92895 9.64924C6.1372 9.54303 6.38679 9.55882 6.58 9.69042L9.73 12.0204L6.58 14.3404Z" fill="white"/>
</svg>
