<svg width="66" height="66" viewBox="0 0 66 66" fill="none" xmlns="http://www.w3.org/2000/svg">
<g clip-path="url(#clip0_91_2)">
<rect x="0.5" y="0.5" width="65" height="65" rx="4.5" stroke="#5F5F5F" stroke-dasharray="5 5"/>
<path d="M27.7074 40.88V40.2642C27.7195 38.1513 27.9066 36.467 28.2688 35.2113C28.6431 33.9556 29.1864 32.9414 29.8988 32.1687C30.6112 31.396 31.4684 30.6957 32.4705 30.0678C33.2191 29.5849 33.8892 29.0838 34.4808 28.5646C35.0724 28.0455 35.5433 27.4719 35.8935 26.8441C36.2436 26.2042 36.4187 25.4918 36.4187 24.707C36.4187 23.8739 36.2195 23.1435 35.821 22.5156C35.4226 21.8878 34.8853 21.4048 34.2092 21.0668C33.5451 20.7287 32.8086 20.5597 31.9996 20.5597C31.2148 20.5597 30.4723 20.7347 29.772 21.0849C29.0717 21.4229 28.4982 21.93 28.0515 22.6062C27.6048 23.2702 27.3633 24.0973 27.3271 25.0874H19.9379C19.9982 22.6726 20.5778 20.6804 21.6765 19.1108C22.7752 17.5291 24.2301 16.3519 26.0412 15.5792C27.8523 14.7944 29.8505 14.402 32.0359 14.402C34.4386 14.402 36.5636 14.8004 38.4109 15.5973C40.2582 16.3821 41.707 17.5231 42.7575 19.0202C43.8079 20.5174 44.3331 22.3224 44.3331 24.4354C44.3331 25.848 44.0977 27.1037 43.6268 28.2024C43.168 29.2891 42.522 30.255 41.6889 31.1001C40.8558 31.9332 39.8718 32.6879 38.7369 33.364C37.783 33.9315 36.9982 34.5231 36.3825 35.1388C35.7788 35.7546 35.326 36.467 35.0241 37.2759C34.7344 38.0849 34.5835 39.081 34.5714 40.2642V40.88H27.7074ZM31.2933 52.4709C30.0859 52.4709 29.0536 52.0483 28.1964 51.2031C27.3512 50.3459 26.9347 49.3196 26.9467 48.1243C26.9347 46.9411 27.3512 45.9268 28.1964 45.0817C29.0536 44.2365 30.0859 43.8139 31.2933 43.8139C32.4403 43.8139 33.4485 44.2365 34.3178 45.0817C35.1871 45.9268 35.6278 46.9411 35.6399 48.1243C35.6278 48.9212 35.4165 49.6516 35.006 50.3157C34.6076 50.9677 34.0824 51.4929 33.4304 51.8913C32.7784 52.2777 32.0661 52.4709 31.2933 52.4709Z" fill="#5F5F5F"/>
</g>
<defs>
<clipPath id="clip0_91_2">
<rect width="66" height="66" fill="white"/>
</clipPath>
</defs>
</svg>
