<svg width="200" height="200" viewBox="0 0 200 200" fill="none" xmlns="http://www.w3.org/2000/svg">
<g clip-path="url(#clip0_181_347)">
<path d="M31.8586 35.9405C36.5143 18.5651 38.8422 9.87739 45.6864 5.9259C52.5305 1.9744 61.2182 4.30226 78.5936 8.95798L91.484 12.4119C98.6622 14.3353 102.251 15.297 104.879 17.0583C109.791 20.3502 112.899 25.7335 113.294 31.6333C113.505 34.7899 112.544 38.379 110.62 45.5572V45.5572C106.96 59.2182 105.13 66.0487 101.778 71.0501C95.5129 80.3981 85.2679 86.3131 74.0399 87.0646C68.0325 87.4668 61.202 85.6365 47.5411 81.9761V81.9761C40.3629 80.0527 36.7737 79.091 34.1457 77.3297C29.2338 74.0378 26.1258 68.6545 25.7308 62.7547C25.5195 59.5981 26.4812 56.009 28.4046 48.8308L31.8586 35.9405Z" fill="white"/>
<path d="M118.074 47.5478C119.99 40.3968 120.948 36.8213 122.701 34.2019C125.991 29.2833 131.379 26.1723 137.284 25.7822C140.429 25.5744 144.004 26.5324 151.155 28.4485L164.05 31.9038C181.405 36.5541 190.083 38.8792 194.03 45.7154C197.976 52.5515 195.651 61.229 191.001 78.584L187.546 91.4793C185.63 98.6302 184.672 102.206 182.919 104.825C179.629 109.744 174.241 112.855 168.336 113.245C165.191 113.453 161.616 112.495 154.465 110.579V110.579C140.84 106.928 134.027 105.102 129.036 101.764C119.665 95.4945 113.737 85.2277 112.994 73.9772C112.598 67.9855 114.423 61.1729 118.074 47.5478V47.5478Z" fill="white"/>
<path d="M118.074 47.5478C119.99 40.3968 120.948 36.8213 122.701 34.2019C125.991 29.2833 131.379 26.1723 137.284 25.7822C140.429 25.5744 144.004 26.5324 151.155 28.4485L164.05 31.9038C181.405 36.5541 190.083 38.8792 194.03 45.7154C197.976 52.5515 195.651 61.229 191.001 78.584L187.546 91.4793C185.63 98.6302 184.672 102.206 182.919 104.825C179.629 109.744 174.241 112.855 168.336 113.245C165.191 113.453 161.616 112.495 154.465 110.579V110.579C140.84 106.928 134.027 105.102 129.036 101.764C119.665 95.4945 113.737 85.2277 112.994 73.9772C112.598 67.9855 114.423 61.1729 118.074 47.5478V47.5478Z" fill="white"/>
<path d="M12.4572 108.526C14.3733 101.375 15.3313 97.7994 17.0836 95.1799C20.3738 90.2614 25.7622 87.1504 31.6669 86.7603C34.8116 86.5525 38.3871 87.5105 45.538 89.4266V89.4266C59.1632 93.0775 65.9757 94.9029 70.9667 98.2416C80.3383 104.511 86.2658 114.777 87.0092 126.028C87.4051 132.02 85.5797 138.832 81.9289 152.457V152.457C80.0128 159.608 79.0547 163.184 77.3024 165.803C74.0122 170.722 68.6238 173.833 62.7191 174.223C59.5745 174.431 55.999 173.473 48.848 171.557L35.9527 168.101C18.5977 163.451 9.92023 161.126 5.97338 154.29C2.02653 147.454 4.35165 138.776 9.0019 121.421L12.4572 108.526Z" fill="white"/>
<path d="M12.4572 108.526C14.3733 101.375 15.3313 97.7994 17.0836 95.1799C20.3738 90.2614 25.7622 87.1504 31.6669 86.7603C34.8116 86.5525 38.3871 87.5105 45.538 89.4266V89.4266C59.1632 93.0775 65.9757 94.9029 70.9667 98.2416C80.3383 104.511 86.2658 114.777 87.0092 126.028C87.4051 132.02 85.5797 138.832 81.9289 152.457V152.457C80.0128 159.608 79.0547 163.184 77.3024 165.803C74.0122 170.722 68.6238 173.833 62.7191 174.223C59.5745 174.431 55.999 173.473 48.848 171.557L35.9527 168.101C18.5977 163.451 9.92023 161.126 5.97338 154.29C2.02653 147.454 4.35165 138.776 9.0019 121.421L12.4572 108.526Z" fill="white"/>
<path d="M89.4256 154.466C93.0765 140.841 94.9019 134.028 98.2406 129.037C104.51 119.666 114.776 113.738 126.027 112.995C132.019 112.599 138.831 114.424 152.456 118.075V118.075C159.607 119.991 163.183 120.949 165.802 122.702C170.721 125.992 173.832 131.38 174.222 137.285C174.43 140.43 173.472 144.005 171.556 151.156L168.1 164.051C163.45 181.406 161.125 190.084 154.289 194.031C147.453 197.978 138.775 195.653 121.42 191.002L108.525 187.547C101.374 185.631 97.7984 184.673 95.179 182.921C90.2604 179.63 87.1494 174.242 86.7593 168.337C86.5515 165.193 87.5095 161.617 89.4256 154.466V154.466Z" fill="white"/>
<path d="M89.4256 154.466C93.0765 140.841 94.9019 134.028 98.2406 129.037C104.51 119.666 114.776 113.738 126.027 112.995C132.019 112.599 138.831 114.424 152.456 118.075V118.075C159.607 119.991 163.183 120.949 165.802 122.702C170.721 125.992 173.832 131.38 174.222 137.285C174.43 140.43 173.472 144.005 171.556 151.156L168.1 164.051C163.45 181.406 161.125 190.084 154.289 194.031C147.453 197.978 138.775 195.653 121.42 191.002L108.525 187.547C101.374 185.631 97.7984 184.673 95.179 182.921C90.2604 179.63 87.1494 174.242 86.7593 168.337C86.5515 165.193 87.5095 161.617 89.4256 154.466V154.466Z" fill="white"/>
</g>
<defs>
<clipPath id="clip0_181_347">
<rect width="200" height="200" fill="white"/>
</clipPath>
</defs>
</svg>
